<svg width="354" height="344" viewBox="0 0 354 344" fill="none" xmlns="http://www.w3.org/2000/svg">
<g clip-path="url(#clip0)">
<path opacity="0.35" d="M37.702 279.296C33.6672 301.579 51.8463 322.464 73.518 329.17C95.1898 335.876 119.099 331.699 141.547 326.068C163.995 320.438 186.663 313.309 209.553 314.314C228.86 315.168 247.308 321.729 266.606 322.477C279.813 322.974 293.068 320.736 305.512 315.908C315.153 312.177 324.381 306.729 331.033 298.869C337.685 291.009 341.401 280.438 339.351 270.693C334.509 247.689 301.644 238.419 298.869 215.019C297.952 207.345 300.666 199.521 304.471 192.585C309.465 183.501 316.323 175.493 324.598 169.085C337.162 157.075 343.508 152.289 349.85 137.083C352.97 129.452 354.255 121.267 353.602 113.182C352.949 105.097 350.375 97.3332 346.086 90.5101C335.657 74.2967 316.135 65.3983 296.43 63.3603C276.724 61.3223 256.669 65.3658 237.31 70.3531C228.115 72.7301 217.829 75.222 209.804 70.675C201.565 66.0031 198.908 55.6399 198.425 46.2073C197.942 36.7747 198.806 26.8392 194.804 18.367C187.659 3.26622 167.773 -1.41046 150.599 0.352285C124.153 3.0628 96.2822 20.8237 92.7569 46.67C90.7877 61.238 95.7048 78.7048 84.4655 88.7418C75.5726 96.6955 62.089 94.5111 50.2684 95.2838C36.0319 96.2168 21.8433 102.548 12.2647 113.212C2.6861 123.876 -1.89164 138.887 1.18027 152.387C4.97123 169.013 18.8622 180.931 31.1268 192.759C43.3914 204.587 55.2709 219.491 53.6133 236.648C52.1397 251.659 40.403 264.408 37.702 279.296Z" fill="#D5DBDE"/>
</g>
<defs>
<clipPath id="clip0">
<rect x="0.232422" width="353.535" height="343.553" fill="white"/>
</clipPath>
</defs>
</svg>
